<svg width="24" height="25" viewBox="0 0 24 25" fill="none" xmlns="http://www.w3.org/2000/svg">
<g id="account_circle">
<mask id="mask0_958_1059" style="mask-type:alpha" maskUnits="userSpaceOnUse" x="0" y="0" width="24" height="25">
<rect id="Bounding box" y="0.5" width="24" height="24" fill="#D9D9D9"/>
</mask>
<g mask="url(#mask0_958_1059)">
<path id="account_circle_2" d="M4.26167 19.8127C5.395 18.9973 6.59756 18.3526 7.86933 17.8783C9.14111 17.4039 10.518 17.1667 12 17.1667C13.482 17.1667 14.8589 17.4039 16.1307 17.8783C17.4024 18.3526 18.605 18.9973 19.7383 19.8127C20.6188 18.9016 21.3269 17.8256 21.8627 16.5847C22.3987 15.3436 22.6667 13.982 22.6667 12.5C22.6667 9.54445 21.6278 7.02778 19.55 4.95C17.4722 2.87222 14.9556 1.83333 12 1.83333C9.04445 1.83333 6.52778 2.87222 4.45 4.95C2.37222 7.02778 1.33333 9.54445 1.33333 12.5C1.33333 13.982 1.60133 15.3436 2.13733 16.5847C2.67311 17.8256 3.38122 18.9016 4.26167 19.8127ZM12.0007 13.1667C10.8771 13.1667 9.92945 12.781 9.15767 12.0097C8.38589 11.2383 8 10.2909 8 9.16733C8 8.04378 8.38567 7.09611 9.157 6.32433C9.92833 5.55256 10.8758 5.16667 11.9993 5.16667C13.1229 5.16667 14.0706 5.55233 14.8423 6.32367C15.6141 7.095 16 8.04244 16 9.166C16 10.2896 15.6143 11.2372 14.843 12.009C14.0717 12.7808 13.1242 13.1667 12.0007 13.1667ZM12 24.5C10.3264 24.5 8.75978 24.1884 7.3 23.5653C5.84022 22.9422 4.57011 22.0906 3.48967 21.0103C2.40944 19.9299 1.55778 18.6598 0.934667 17.2C0.311555 15.7402 0 14.1736 0 12.5C0 10.8264 0.311555 9.25978 0.934667 7.8C1.55778 6.34022 2.40944 5.07011 3.48967 3.98967C4.57011 2.90944 5.84022 2.05778 7.3 1.43467C8.75978 0.811555 10.3264 0.5 12 0.5C13.6736 0.5 15.2402 0.811555 16.7 1.43467C18.1598 2.05778 19.4299 2.90944 20.5103 3.98967C21.5906 5.07011 22.4422 6.34022 23.0653 7.8C23.6884 9.25978 24 10.8264 24 12.5C24 14.1736 23.6884 15.7402 23.0653 17.2C22.4422 18.6598 21.5906 19.9299 20.5103 21.0103C19.4299 22.0906 18.1598 22.9422 16.7 23.5653C15.2402 24.1884 13.6736 24.5 12 24.5ZM12 23.1667C13.2291 23.1667 14.4386 22.9517 15.6283 22.5217C16.8179 22.0919 17.846 21.5034 18.7127 20.7563C17.846 20.0606 16.8434 19.5106 15.705 19.1063C14.5666 18.7021 13.3316 18.5 12 18.5C10.6684 18.5 9.42911 18.6979 8.282 19.0937C7.13511 19.4894 6.13689 20.0437 5.28733 20.7563C6.154 21.5034 7.18211 22.0919 8.37167 22.5217C9.56144 22.9517 10.7709 23.1667 12 23.1667ZM12 11.8333C12.7487 11.8333 13.3803 11.5761 13.895 11.0617C14.4094 10.547 14.6667 9.91533 14.6667 9.16667C14.6667 8.418 14.4094 7.78633 13.895 7.27167C13.3803 6.75722 12.7487 6.5 12 6.5C11.2513 6.5 10.6197 6.75722 10.105 7.27167C9.59056 7.78633 9.33333 8.418 9.33333 9.16667C9.33333 9.91533 9.59056 10.547 10.105 11.0617C10.6197 11.5761 11.2513 11.8333 12 11.8333Z" fill="#121212"/>
</g>
</g>
</svg>
