<svg width="24" height="25" viewBox="0 0 24 25" fill="none" xmlns="http://www.w3.org/2000/svg">
<path fill-rule="evenodd" clip-rule="evenodd" d="M12 22.5718C14.7848 22.5718 17.4555 21.4655 19.4246 19.4964C21.3938 17.5273 22.5 14.8566 22.5 12.0718C22.5 9.287 21.3938 6.61629 19.4246 4.64716C17.4555 2.67802 14.7848 1.57178 12 1.57178C9.21523 1.57178 6.54451 2.67802 4.57538 4.64716C2.60625 6.61629 1.5 9.287 1.5 12.0718C1.5 14.8566 2.60625 17.5273 4.57538 19.4964C6.54451 21.4655 9.21523 22.5718 12 22.5718ZM12 0.0717773C15.1826 0.0717773 18.2348 1.33606 20.4853 3.58649C22.7357 5.83693 24 8.88918 24 12.0718C24 15.2544 22.7357 18.3066 20.4853 20.5571C18.2348 22.8075 15.1826 24.0718 12 24.0718C8.8174 24.0718 5.76516 22.8075 3.51472 20.5571C1.26428 18.3066 0 15.2544 0 12.0718C0 8.88918 1.26428 5.83693 3.51472 3.58649C5.76516 1.33606 8.8174 0.0717773 12 0.0717773ZM6.75 11.3218C6.55109 11.3218 6.36032 11.4008 6.21967 11.5414C6.07902 11.6821 6 11.8729 6 12.0718C6 12.2707 6.07902 12.4615 6.21967 12.6021C6.36032 12.7428 6.55109 12.8218 6.75 12.8218L15.4395 12.8218L12.219 16.0408C12.0782 16.1816 11.9991 16.3726 11.9991 16.5718C11.9991 16.7709 12.0782 16.9619 12.219 17.1028C12.3598 17.2436 12.5508 17.3227 12.75 17.3227C12.9492 17.3227 13.1402 17.2436 13.281 17.1028L17.781 12.6028C17.8508 12.5331 17.9063 12.4503 17.9441 12.3592C17.9819 12.2681 18.0013 12.1704 18.0013 12.0718C18.0013 11.9731 17.9819 11.8754 17.9441 11.7843C17.9063 11.6932 17.8508 11.6104 17.781 11.5408L13.281 7.04078C13.1402 6.89995 12.9492 6.82083 12.75 6.82083C12.5508 6.82083 12.3598 6.89995 12.219 7.04078C12.0782 7.18161 11.9991 7.37261 11.9991 7.57178C11.9991 7.77094 12.0782 7.96195 12.219 8.10278L15.4395 11.3218L6.75 11.3218Z" fill="#001A52"/>
</svg>
