<svg width="24" height="25" viewBox="0 0 24 25" fill="none" xmlns="http://www.w3.org/2000/svg">
<g clip-path="url(#clip0_1475_2281)">
<path fill-rule="evenodd" clip-rule="evenodd" d="M12 22.5718C9.21523 22.5718 6.54451 21.4655 4.57538 19.4964C2.60625 17.5273 1.5 14.8566 1.5 12.0718C1.5 9.287 2.60625 6.61629 4.57538 4.64716C6.54451 2.67802 9.21523 1.57178 12 1.57178C14.7848 1.57178 17.4555 2.67802 19.4246 4.64716C21.3938 6.61629 22.5 9.287 22.5 12.0718C22.5 14.8566 21.3938 17.5273 19.4246 19.4964C17.4555 21.4655 14.7848 22.5718 12 22.5718ZM12 0.0717773C8.8174 0.0717773 5.76515 1.33606 3.51472 3.58649C1.26428 5.83693 0 8.88918 0 12.0718C0 15.2544 1.26428 18.3066 3.51472 20.5571C5.76515 22.8075 8.8174 24.0718 12 24.0718C15.1826 24.0718 18.2348 22.8075 20.4853 20.5571C22.7357 18.3066 24 15.2544 24 12.0718C24 8.88918 22.7357 5.83693 20.4853 3.58649C18.2348 1.33606 15.1826 0.0717773 12 0.0717773ZM17.25 11.3218C17.4489 11.3218 17.6397 11.4008 17.7803 11.5414C17.921 11.6821 18 11.8729 18 12.0718C18 12.2707 17.921 12.4615 17.7803 12.6021C17.6397 12.7428 17.4489 12.8218 17.25 12.8218L8.5605 12.8218L11.781 16.0408C11.9218 16.1816 12.0009 16.3726 12.0009 16.5718C12.0009 16.7709 11.9218 16.9619 11.781 17.1028C11.6402 17.2436 11.4492 17.3227 11.25 17.3227C11.0508 17.3227 10.8598 17.2436 10.719 17.1028L6.219 12.6028C6.14915 12.5331 6.09374 12.4503 6.05593 12.3592C6.01812 12.2681 5.99866 12.1704 5.99866 12.0718C5.99866 11.9731 6.01812 11.8754 6.05593 11.7843C6.09374 11.6932 6.14915 11.6104 6.219 11.5408L10.719 7.04078C10.8598 6.89995 11.0508 6.82083 11.25 6.82083C11.4492 6.82083 11.6402 6.89995 11.781 7.04078C11.9218 7.18161 12.0009 7.37261 12.0009 7.57178C12.0009 7.77094 11.9218 7.96195 11.781 8.10278L8.5605 11.3218L17.25 11.3218Z" fill="#001A52"/>
</g>
<defs>
<clipPath id="clip0_1475_2281">
<rect width="24" height="24" fill="white" transform="matrix(0 -1 -1 0 24 24.0718)"/>
</clipPath>
</defs>
</svg>
