<svg width="306" height="40" viewBox="0 0 306 40" fill="none" xmlns="http://www.w3.org/2000/svg">
<line x1="3.13672" y1="19" x2="305.978" y2="19" stroke="#E51236" stroke-width="2"/>
<rect width="40" height="40" rx="20" fill="#E51236"/>
<path d="M21.5341 14.3636V26H19.7727V16.125H19.7045L16.9205 17.9432V16.2614L19.8239 14.3636H21.5341Z" fill="white"/>
<rect x="89.666" y="1" width="38" height="38" rx="19" fill="#001A52"/>
<rect x="89.666" y="1" width="38" height="38" rx="19" stroke="#E51236" stroke-width="2"/>
<path d="M104.879 26V24.7273L108.817 20.6477C109.237 20.2045 109.584 19.8163 109.856 19.483C110.133 19.1458 110.339 18.8258 110.476 18.5227C110.612 18.2197 110.68 17.8977 110.68 17.5568C110.68 17.1705 110.589 16.8371 110.407 16.5568C110.226 16.2727 109.978 16.0549 109.663 15.9034C109.349 15.7481 108.995 15.6705 108.601 15.6705C108.184 15.6705 107.82 15.7557 107.51 15.9261C107.199 16.0966 106.961 16.3371 106.794 16.6477C106.627 16.9583 106.544 17.322 106.544 17.7386H104.868C104.868 17.0303 105.031 16.411 105.356 15.8807C105.682 15.3504 106.129 14.9394 106.697 14.6477C107.265 14.3523 107.911 14.2045 108.635 14.2045C109.366 14.2045 110.01 14.3504 110.567 14.642C111.127 14.9299 111.565 15.3239 111.879 15.8239C112.193 16.3201 112.351 16.8807 112.351 17.5057C112.351 17.9375 112.269 18.3598 112.106 18.7727C111.947 19.1856 111.669 19.6458 111.271 20.1534C110.873 20.6572 110.32 21.2689 109.612 21.9886L107.3 24.4091V24.4943H112.538V26H104.879Z" fill="white"/>
<rect x="178.334" y="1" width="38" height="38" rx="19" fill="#001A52"/>
<rect x="178.334" y="1" width="38" height="38" rx="19" stroke="#E51236" stroke-width="2"/>
<path d="M197.348 26.1591C196.568 26.1591 195.871 26.0246 195.257 25.7557C194.647 25.4867 194.164 25.1136 193.808 24.6364C193.456 24.1553 193.267 23.5985 193.24 22.9659H195.024C195.047 23.3106 195.163 23.6098 195.371 23.8636C195.583 24.1136 195.86 24.3068 196.2 24.4432C196.541 24.5795 196.92 24.6477 197.337 24.6477C197.795 24.6477 198.2 24.5682 198.553 24.4091C198.909 24.25 199.187 24.0284 199.388 23.7443C199.589 23.4564 199.689 23.125 199.689 22.75C199.689 22.3598 199.589 22.017 199.388 21.7216C199.191 21.4223 198.901 21.1875 198.519 21.017C198.14 20.8466 197.682 20.7614 197.144 20.7614H196.161V19.3295H197.144C197.575 19.3295 197.954 19.2519 198.28 19.0966C198.61 18.9413 198.867 18.7254 199.053 18.4489C199.238 18.1686 199.331 17.8409 199.331 17.4659C199.331 17.1061 199.25 16.7936 199.087 16.5284C198.928 16.2595 198.7 16.0492 198.405 15.8977C198.113 15.7462 197.769 15.6705 197.371 15.6705C196.992 15.6705 196.638 15.7405 196.308 15.8807C195.983 16.017 195.718 16.214 195.513 16.4716C195.308 16.7254 195.199 17.0303 195.183 17.3864H193.485C193.503 16.7576 193.689 16.2045 194.041 15.7273C194.397 15.25 194.867 14.8769 195.45 14.608C196.034 14.339 196.682 14.2045 197.394 14.2045C198.14 14.2045 198.784 14.3504 199.325 14.642C199.871 14.9299 200.291 15.3144 200.587 15.7955C200.886 16.2765 201.034 16.803 201.03 17.375C201.034 18.0265 200.852 18.5795 200.485 19.0341C200.121 19.4886 199.636 19.7936 199.03 19.9489V20.0398C199.803 20.1572 200.401 20.464 200.825 20.9602C201.253 21.4564 201.466 22.072 201.462 22.8068C201.466 23.447 201.288 24.0208 200.928 24.5284C200.572 25.036 200.085 25.4356 199.468 25.7273C198.85 26.0152 198.144 26.1591 197.348 26.1591Z" fill="white"/>
<rect x="267" y="1" width="38" height="38" rx="19" fill="#001A52"/>
<rect x="267" y="1" width="38" height="38" rx="19" stroke="#E51236" stroke-width="2"/>
<path d="M281.641 23.7273V22.3068L286.669 14.3636H287.788V16.4545H287.078L283.482 22.1477V22.2386H290.374V23.7273H281.641ZM287.158 26V23.2955L287.169 22.6477V14.3636H288.834V26H287.158Z" fill="white"/>
</svg>
