<svg width="322" height="40" viewBox="0 0 322 40" fill="none" xmlns="http://www.w3.org/2000/svg">
<line x1="3.32422" y1="19" x2="322.001" y2="19" stroke="#E51236" stroke-width="2"/>
<rect x="1" y="1" width="38" height="38" rx="19" fill="#E51236"/>
<rect x="1" y="1" width="38" height="38" rx="19" stroke="#E51236" stroke-width="2"/>
<path d="M21.5341 14.3636V26H19.7727V16.125H19.7045L16.9205 17.9432V16.2614L19.8239 14.3636H21.5341Z" fill="white"/>
<rect x="95" y="1" width="38" height="38" rx="19" fill="#E51236"/>
<rect x="95" y="1" width="38" height="38" rx="19" stroke="#E51236" stroke-width="2"/>
<path d="M110.119 26V24.7273L114.057 20.6477C114.477 20.2045 114.824 19.8163 115.097 19.483C115.373 19.1458 115.58 18.8258 115.716 18.5227C115.852 18.2197 115.92 17.8977 115.92 17.5568C115.92 17.1705 115.83 16.8371 115.648 16.5568C115.466 16.2727 115.218 16.0549 114.903 15.9034C114.589 15.7481 114.235 15.6705 113.841 15.6705C113.424 15.6705 113.061 15.7557 112.75 15.9261C112.439 16.0966 112.201 16.3371 112.034 16.6477C111.867 16.9583 111.784 17.322 111.784 17.7386H110.108C110.108 17.0303 110.271 16.411 110.597 15.8807C110.922 15.3504 111.369 14.9394 111.938 14.6477C112.506 14.3523 113.152 14.2045 113.875 14.2045C114.606 14.2045 115.25 14.3504 115.807 14.642C116.367 14.9299 116.805 15.3239 117.119 15.8239C117.434 16.3201 117.591 16.8807 117.591 17.5057C117.591 17.9375 117.509 18.3598 117.347 18.7727C117.188 19.1856 116.909 19.6458 116.511 20.1534C116.114 20.6572 115.561 21.2689 114.852 21.9886L112.54 24.4091V24.4943H117.778V26H110.119Z" fill="white"/>
<rect x="189" y="1" width="38" height="38" rx="19" fill="#E51236"/>
<rect x="189" y="1" width="38" height="38" rx="19" stroke="#E51236" stroke-width="2"/>
<path d="M208.014 26.1591C207.234 26.1591 206.537 26.0246 205.923 25.7557C205.313 25.4867 204.83 25.1136 204.474 24.6364C204.122 24.1553 203.933 23.5985 203.906 22.9659H205.69C205.713 23.3106 205.829 23.6098 206.037 23.8636C206.249 24.1136 206.526 24.3068 206.866 24.4432C207.207 24.5795 207.586 24.6477 208.003 24.6477C208.461 24.6477 208.866 24.5682 209.219 24.4091C209.575 24.25 209.853 24.0284 210.054 23.7443C210.255 23.4564 210.355 23.125 210.355 22.75C210.355 22.3598 210.255 22.017 210.054 21.7216C209.857 21.4223 209.567 21.1875 209.185 21.017C208.806 20.8466 208.348 20.7614 207.81 20.7614H206.827V19.3295H207.81C208.241 19.3295 208.62 19.2519 208.946 19.0966C209.276 18.9413 209.533 18.7254 209.719 18.4489C209.904 18.1686 209.997 17.8409 209.997 17.4659C209.997 17.1061 209.916 16.7936 209.753 16.5284C209.594 16.2595 209.366 16.0492 209.071 15.8977C208.779 15.7462 208.435 15.6705 208.037 15.6705C207.658 15.6705 207.304 15.7405 206.974 15.8807C206.649 16.017 206.384 16.214 206.179 16.4716C205.974 16.7254 205.865 17.0303 205.849 17.3864H204.151C204.17 16.7576 204.355 16.2045 204.707 15.7273C205.063 15.25 205.533 14.8769 206.116 14.608C206.7 14.339 207.348 14.2045 208.06 14.2045C208.806 14.2045 209.45 14.3504 209.991 14.642C210.537 14.9299 210.957 15.3144 211.253 15.7955C211.552 16.2765 211.7 16.803 211.696 17.375C211.7 18.0265 211.518 18.5795 211.151 19.0341C210.787 19.4886 210.302 19.7936 209.696 19.9489V20.0398C210.469 20.1572 211.067 20.464 211.491 20.9602C211.92 21.4564 212.132 22.072 212.128 22.8068C212.132 23.447 211.954 24.0208 211.594 24.5284C211.238 25.036 210.751 25.4356 210.134 25.7273C209.516 26.0152 208.81 26.1591 208.014 26.1591Z" fill="white"/>
<rect x="283" y="1" width="38" height="38" rx="19" fill="#E51236"/>
<rect x="283" y="1" width="38" height="38" rx="19" stroke="#E51236" stroke-width="2"/>
<path d="M297.641 23.7273V22.3068L302.669 14.3636H303.788V16.4545H303.078L299.482 22.1477V22.2386H306.374V23.7273H297.641ZM303.158 26V23.2955L303.169 22.6477V14.3636H304.834V26H303.158Z" fill="white"/>
</svg>
