<svg width="872" height="41" viewBox="0 0 872 41" fill="none" xmlns="http://www.w3.org/2000/svg">
<line x1="9" y1="19.5449" x2="872" y2="19.5449" stroke="#E51236" stroke-width="2"/>
<rect y="0.544922" width="40" height="40" rx="20" fill="#E51236"/>
<path d="M21.5341 14.9086V26.5449H19.7727V16.6699H19.7045L16.9205 18.4881V16.8063L19.8239 14.9086H21.5341Z" fill="white"/>
<rect x="278.333" y="1.54492" width="38" height="38" rx="19" fill="#E51236"/>
<rect x="278.333" y="1.54492" width="38" height="38" rx="19" stroke="#E51236" stroke-width="2"/>
<path d="M293.453 26.5449V25.2722L297.39 21.1926C297.811 20.7495 298.157 20.3612 298.43 20.0279C298.706 19.6908 298.913 19.3707 299.049 19.0676C299.186 18.7646 299.254 18.4426 299.254 18.1017C299.254 17.7154 299.163 17.382 298.981 17.1017C298.799 16.8176 298.551 16.5998 298.237 16.4483C297.922 16.293 297.568 16.2154 297.174 16.2154C296.757 16.2154 296.394 16.3006 296.083 16.4711C295.773 16.6415 295.534 16.882 295.367 17.1926C295.201 17.5033 295.117 17.8669 295.117 18.2836H293.441C293.441 17.5752 293.604 16.9559 293.93 16.4256C294.256 15.8953 294.703 15.4843 295.271 15.1926C295.839 14.8972 296.485 14.7495 297.208 14.7495C297.939 14.7495 298.583 14.8953 299.14 15.187C299.701 15.4748 300.138 15.8688 300.453 16.3688C300.767 16.865 300.924 17.4256 300.924 18.0506C300.924 18.4824 300.843 18.9048 300.68 19.3176C300.521 19.7305 300.242 20.1908 299.845 20.6983C299.447 21.2021 298.894 21.8139 298.186 22.5336L295.873 24.954V25.0392H301.112V26.5449H293.453Z" fill="white"/>
<rect x="555.667" y="1.54492" width="38" height="38" rx="19" fill="#E51236"/>
<rect x="555.667" y="1.54492" width="38" height="38" rx="19" stroke="#E51236" stroke-width="2"/>
<path d="M574.681 26.704C573.9 26.704 573.203 26.5695 572.59 26.3006C571.98 26.0317 571.497 25.6586 571.141 25.1813C570.789 24.7002 570.599 24.1434 570.573 23.5108H572.357C572.38 23.8555 572.495 24.1548 572.703 24.4086C572.916 24.6586 573.192 24.8517 573.533 24.9881C573.874 25.1245 574.253 25.1926 574.669 25.1926C575.128 25.1926 575.533 25.1131 575.885 24.954C576.241 24.7949 576.52 24.5733 576.72 24.2892C576.921 24.0014 577.022 23.6699 577.022 23.2949C577.022 22.9048 576.921 22.562 576.72 22.2665C576.524 21.9673 576.234 21.7324 575.851 21.562C575.472 21.3915 575.014 21.3063 574.476 21.3063H573.493V19.8745H574.476C574.908 19.8745 575.287 19.7968 575.613 19.6415C575.942 19.4862 576.2 19.2703 576.385 18.9938C576.571 18.7135 576.664 18.3858 576.664 18.0108C576.664 17.651 576.582 17.3385 576.419 17.0733C576.26 16.8044 576.033 16.5942 575.738 16.4426C575.446 16.2911 575.101 16.2154 574.703 16.2154C574.325 16.2154 573.97 16.2855 573.641 16.4256C573.315 16.562 573.05 16.7589 572.845 17.0165C572.641 17.2703 572.531 17.5752 572.516 17.9313H570.817C570.836 17.3025 571.022 16.7495 571.374 16.2722C571.73 15.7949 572.2 15.4218 572.783 15.1529C573.366 14.8839 574.014 14.7495 574.726 14.7495C575.472 14.7495 576.116 14.8953 576.658 15.187C577.203 15.4748 577.624 15.8593 577.919 16.3404C578.219 16.8214 578.366 17.348 578.363 17.9199C578.366 18.5714 578.184 19.1245 577.817 19.579C577.453 20.0336 576.969 20.3385 576.363 20.4938V20.5847C577.135 20.7021 577.734 21.0089 578.158 21.5051C578.586 22.0014 578.798 22.6169 578.794 23.3517C578.798 23.9919 578.62 24.5658 578.26 25.0733C577.904 25.5809 577.417 25.9805 576.8 26.2722C576.183 26.5601 575.476 26.704 574.681 26.704Z" fill="white"/>
<rect x="833" y="1.54492" width="38" height="38" rx="19" fill="#E51236"/>
<rect x="833" y="1.54492" width="38" height="38" rx="19" stroke="#E51236" stroke-width="2"/>
<path d="M847.641 24.2722V22.8517L852.669 14.9086H853.788V16.9995H853.078L849.482 22.6926V22.7836H856.374V24.2722H847.641ZM853.158 26.5449V23.8404L853.169 23.1926V14.9086H854.834V26.5449H853.158Z" fill="white"/>
</svg>
