<svg width="872" height="40" viewBox="0 0 872 40" fill="none" xmlns="http://www.w3.org/2000/svg">
<line x1="9" y1="19" x2="872" y2="19" stroke="#E51236" stroke-width="2"/>
<rect width="40" height="40" rx="20" fill="#E51236"/>
<path d="M21.5341 14.3636V26H19.7727V16.125H19.7045L16.9205 17.9432V16.2614L19.8239 14.3636H21.5341Z" fill="white"/>
<rect x="278.333" y="1" width="38" height="38" rx="19" fill="#E51236"/>
<rect x="278.333" y="1" width="38" height="38" rx="19" stroke="#E51236" stroke-width="2"/>
<path d="M293.453 26V24.7273L297.39 20.6477C297.811 20.2045 298.157 19.8163 298.43 19.483C298.706 19.1458 298.913 18.8258 299.049 18.5227C299.186 18.2197 299.254 17.8977 299.254 17.5568C299.254 17.1705 299.163 16.8371 298.981 16.5568C298.799 16.2727 298.551 16.0549 298.237 15.9034C297.922 15.7481 297.568 15.6705 297.174 15.6705C296.757 15.6705 296.394 15.7557 296.083 15.9261C295.773 16.0966 295.534 16.3371 295.367 16.6477C295.201 16.9583 295.117 17.322 295.117 17.7386H293.441C293.441 17.0303 293.604 16.411 293.93 15.8807C294.256 15.3504 294.703 14.9394 295.271 14.6477C295.839 14.3523 296.485 14.2045 297.208 14.2045C297.939 14.2045 298.583 14.3504 299.14 14.642C299.701 14.9299 300.138 15.3239 300.453 15.8239C300.767 16.3201 300.924 16.8807 300.924 17.5057C300.924 17.9375 300.843 18.3598 300.68 18.7727C300.521 19.1856 300.242 19.6458 299.845 20.1534C299.447 20.6572 298.894 21.2689 298.186 21.9886L295.873 24.4091V24.4943H301.112V26H293.453Z" fill="white"/>
<rect x="555.667" y="1" width="38" height="38" rx="19" fill="#001A52"/>
<rect x="555.667" y="1" width="38" height="38" rx="19" stroke="#E51236" stroke-width="2"/>
<path d="M574.681 26.1591C573.9 26.1591 573.203 26.0246 572.59 25.7557C571.98 25.4867 571.497 25.1136 571.141 24.6364C570.789 24.1553 570.599 23.5985 570.573 22.9659H572.357C572.38 23.3106 572.495 23.6098 572.703 23.8636C572.916 24.1136 573.192 24.3068 573.533 24.4432C573.874 24.5795 574.253 24.6477 574.669 24.6477C575.128 24.6477 575.533 24.5682 575.885 24.4091C576.241 24.25 576.52 24.0284 576.72 23.7443C576.921 23.4564 577.022 23.125 577.022 22.75C577.022 22.3598 576.921 22.017 576.72 21.7216C576.524 21.4223 576.234 21.1875 575.851 21.017C575.472 20.8466 575.014 20.7614 574.476 20.7614H573.493V19.3295H574.476C574.908 19.3295 575.287 19.2519 575.613 19.0966C575.942 18.9413 576.2 18.7254 576.385 18.4489C576.571 18.1686 576.664 17.8409 576.664 17.4659C576.664 17.1061 576.582 16.7936 576.419 16.5284C576.26 16.2595 576.033 16.0492 575.738 15.8977C575.446 15.7462 575.101 15.6705 574.703 15.6705C574.325 15.6705 573.97 15.7405 573.641 15.8807C573.315 16.017 573.05 16.214 572.845 16.4716C572.641 16.7254 572.531 17.0303 572.516 17.3864H570.817C570.836 16.7576 571.022 16.2045 571.374 15.7273C571.73 15.25 572.2 14.8769 572.783 14.608C573.366 14.339 574.014 14.2045 574.726 14.2045C575.472 14.2045 576.116 14.3504 576.658 14.642C577.203 14.9299 577.624 15.3144 577.919 15.7955C578.219 16.2765 578.366 16.803 578.363 17.375C578.366 18.0265 578.184 18.5795 577.817 19.0341C577.453 19.4886 576.969 19.7936 576.363 19.9489V20.0398C577.135 20.1572 577.734 20.464 578.158 20.9602C578.586 21.4564 578.798 22.072 578.794 22.8068C578.798 23.447 578.62 24.0208 578.26 24.5284C577.904 25.036 577.417 25.4356 576.8 25.7273C576.183 26.0152 575.476 26.1591 574.681 26.1591Z" fill="white"/>
<rect x="833" y="1" width="38" height="38" rx="19" fill="#001A52"/>
<rect x="833" y="1" width="38" height="38" rx="19" stroke="#E51236" stroke-width="2"/>
<path d="M847.641 23.7273V22.3068L852.669 14.3636H853.788V16.4545H853.078L849.482 22.1477V22.2386H856.374V23.7273H847.641ZM853.158 26V23.2955L853.169 22.6477V14.3636H854.834V26H853.158Z" fill="white"/>
</svg>
