<svg width="872" height="40" viewBox="0 0 872 40" fill="none" xmlns="http://www.w3.org/2000/svg">
<line x1="9" y1="19" x2="872" y2="19" stroke="#E51236" stroke-width="2"/>
<rect x="1" y="1" width="36" height="38" rx="18" fill="#E51236"/>
<rect x="1" y="1" width="36" height="38" rx="18" stroke="#E51236" stroke-width="2"/>
<path d="M20.5341 14.3636V26H18.7727V16.125H18.7045L15.9205 17.9432V16.2614L18.8239 14.3636H20.5341Z" fill="white"/>
<rect x="277" y="1" width="38" height="38" rx="19" fill="#001A52"/>
<rect x="277" y="1" width="38" height="38" rx="19" stroke="#E51236" stroke-width="2"/>
<path d="M292.213 26V24.7273L296.151 20.6477C296.571 20.2045 296.918 19.8163 297.19 19.483C297.467 19.1458 297.673 18.8258 297.81 18.5227C297.946 18.2197 298.014 17.8977 298.014 17.5568C298.014 17.1705 297.923 16.8371 297.741 16.5568C297.56 16.2727 297.312 16.0549 296.997 15.9034C296.683 15.7481 296.329 15.6705 295.935 15.6705C295.518 15.6705 295.154 15.7557 294.844 15.9261C294.533 16.0966 294.295 16.3371 294.128 16.6477C293.961 16.9583 293.878 17.322 293.878 17.7386H292.202C292.202 17.0303 292.365 16.411 292.69 15.8807C293.016 15.3504 293.463 14.9394 294.031 14.6477C294.599 14.3523 295.245 14.2045 295.969 14.2045C296.7 14.2045 297.344 14.3504 297.901 14.642C298.461 14.9299 298.899 15.3239 299.213 15.8239C299.527 16.3201 299.685 16.8807 299.685 17.5057C299.685 17.9375 299.603 18.3598 299.44 18.7727C299.281 19.1856 299.003 19.6458 298.605 20.1534C298.207 20.6572 297.654 21.2689 296.946 21.9886L294.634 24.4091V24.4943H299.872V26H292.213Z" fill="white"/>
<rect x="555" y="1" width="38" height="38" rx="19" fill="#001A52"/>
<rect x="555" y="1" width="38" height="38" rx="19" stroke="#E51236" stroke-width="2"/>
<path d="M574.014 26.1591C573.234 26.1591 572.537 26.0246 571.923 25.7557C571.313 25.4867 570.83 25.1136 570.474 24.6364C570.122 24.1553 569.933 23.5985 569.906 22.9659H571.69C571.713 23.3106 571.829 23.6098 572.037 23.8636C572.249 24.1136 572.526 24.3068 572.866 24.4432C573.207 24.5795 573.586 24.6477 574.003 24.6477C574.461 24.6477 574.866 24.5682 575.219 24.4091C575.575 24.25 575.853 24.0284 576.054 23.7443C576.255 23.4564 576.355 23.125 576.355 22.75C576.355 22.3598 576.255 22.017 576.054 21.7216C575.857 21.4223 575.567 21.1875 575.185 21.017C574.806 20.8466 574.348 20.7614 573.81 20.7614H572.827V19.3295H573.81C574.241 19.3295 574.62 19.2519 574.946 19.0966C575.276 18.9413 575.533 18.7254 575.719 18.4489C575.904 18.1686 575.997 17.8409 575.997 17.4659C575.997 17.1061 575.916 16.7936 575.753 16.5284C575.594 16.2595 575.366 16.0492 575.071 15.8977C574.779 15.7462 574.435 15.6705 574.037 15.6705C573.658 15.6705 573.304 15.7405 572.974 15.8807C572.649 16.017 572.384 16.214 572.179 16.4716C571.974 16.7254 571.865 17.0303 571.849 17.3864H570.151C570.17 16.7576 570.355 16.2045 570.707 15.7273C571.063 15.25 571.533 14.8769 572.116 14.608C572.7 14.339 573.348 14.2045 574.06 14.2045C574.806 14.2045 575.45 14.3504 575.991 14.642C576.537 14.9299 576.957 15.3144 577.253 15.7955C577.552 16.2765 577.7 16.803 577.696 17.375C577.7 18.0265 577.518 18.5795 577.151 19.0341C576.787 19.4886 576.302 19.7936 575.696 19.9489V20.0398C576.469 20.1572 577.067 20.464 577.491 20.9602C577.92 21.4564 578.132 22.072 578.128 22.8068C578.132 23.447 577.954 24.0208 577.594 24.5284C577.238 25.036 576.751 25.4356 576.134 25.7273C575.516 26.0152 574.81 26.1591 574.014 26.1591Z" fill="white"/>
<rect x="833" y="1" width="38" height="38" rx="19" fill="#001A52"/>
<rect x="833" y="1" width="38" height="38" rx="19" stroke="#E51236" stroke-width="2"/>
<path d="M847.641 23.7273V22.3068L852.669 14.3636H853.788V16.4545H853.078L849.482 22.1477V22.2386H856.374V23.7273H847.641ZM853.158 26V23.2955L853.169 22.6477V14.3636H854.834V26H853.158Z" fill="white"/>
</svg>
