<svg width="24" height="25" viewBox="0 0 24 25" fill="none" xmlns="http://www.w3.org/2000/svg">
<g id="heart-icon">
<path id="Vector" d="M21.6328 7.14687C21.3187 6.41946 20.8657 5.76029 20.2992 5.20625C19.7323 4.65056 19.064 4.20896 18.3305 3.90547C17.5699 3.58951 16.7541 3.42779 15.9305 3.42969C14.775 3.42969 13.6477 3.74609 12.668 4.34375C12.4336 4.48672 12.2109 4.64375 12 4.81484C11.7891 4.64375 11.5664 4.48672 11.332 4.34375C10.3523 3.74609 9.225 3.42969 8.06953 3.42969C7.2375 3.42969 6.43125 3.58906 5.66953 3.90547C4.93359 4.21016 4.27031 4.64844 3.70078 5.20625C3.13359 5.75966 2.6805 6.41899 2.36719 7.14687C2.04141 7.9039 1.875 8.70781 1.875 9.53515C1.875 10.3156 2.03438 11.1289 2.35078 11.9562C2.61563 12.6477 2.99531 13.3648 3.48047 14.0891C4.24922 15.2352 5.30625 16.4305 6.61875 17.6422C8.79375 19.6508 10.9477 21.0383 11.0391 21.0945L11.5945 21.4508C11.8406 21.6078 12.157 21.6078 12.4031 21.4508L12.9586 21.0945C13.05 21.0359 15.2016 19.6508 17.3789 17.6422C18.6914 16.4305 19.7484 15.2352 20.5172 14.0891C21.0023 13.3648 21.3844 12.6477 21.6469 11.9562C21.9633 11.1289 22.1227 10.3156 22.1227 9.53515C22.125 8.70781 21.9586 7.9039 21.6328 7.14687ZM12 19.5969C12 19.5969 3.65625 14.2508 3.65625 9.53515C3.65625 7.14687 5.63203 5.21094 8.06953 5.21094C9.78281 5.21094 11.2688 6.16719 12 7.56406C12.7312 6.16719 14.2172 5.21094 15.9305 5.21094C18.368 5.21094 20.3438 7.14687 20.3438 9.53515C20.3438 14.2508 12 19.5969 12 19.5969Z" fill="#121212"/>
</g>
</svg>
