<svg width="15" height="15" viewBox="0 0 15 15" fill="none" xmlns="http://www.w3.org/2000/svg">
<g id="icon-heart">
<path id="Vector" d="M12.8242 4.7836C12.641 4.35928 12.3767 3.97476 12.0463 3.65157C11.7156 3.32742 11.3257 3.06982 10.8979 2.89278C10.4542 2.70848 9.97829 2.61414 9.49785 2.61524C8.82383 2.61524 8.16621 2.79981 7.59473 3.14845C7.45801 3.23185 7.32812 3.32345 7.20508 3.42325C7.08203 3.32345 6.95215 3.23185 6.81543 3.14845C6.24395 2.79981 5.58633 2.61524 4.9123 2.61524C4.42695 2.61524 3.95664 2.70821 3.5123 2.89278C3.08301 3.07052 2.69609 3.32618 2.36387 3.65157C2.033 3.9744 1.7687 4.359 1.58594 4.7836C1.3959 5.2252 1.29883 5.69415 1.29883 6.17677C1.29883 6.63204 1.3918 7.10645 1.57637 7.58907C1.73086 7.99239 1.95234 8.41075 2.23535 8.83321C2.68379 9.50177 3.30039 10.199 4.06602 10.9059C5.33477 12.0775 6.59121 12.8869 6.64453 12.9197L6.96855 13.1275C7.11211 13.2191 7.29668 13.2191 7.44023 13.1275L7.76426 12.9197C7.81758 12.8856 9.07266 12.0775 10.3428 10.9059C11.1084 10.199 11.725 9.50177 12.1734 8.83321C12.4564 8.41075 12.6793 7.99239 12.8324 7.58907C13.017 7.10645 13.11 6.63204 13.11 6.17677C13.1113 5.69415 13.0143 5.2252 12.8242 4.7836ZM7.20508 12.0461C7.20508 12.0461 2.33789 8.92755 2.33789 6.17677C2.33789 4.7836 3.49043 3.65431 4.9123 3.65431C5.91172 3.65431 6.77852 4.21212 7.20508 5.02696C7.63164 4.21212 8.49844 3.65431 9.49785 3.65431C10.9197 3.65431 12.0723 4.7836 12.0723 6.17677C12.0723 8.92755 7.20508 12.0461 7.20508 12.0461Z" fill="white"/>
</g>
</svg>
