<svg width="60" height="60" viewBox="0 0 60 60" fill="none" xmlns="http://www.w3.org/2000/svg">
<g id="mdi-light:image">
<path id="Vector" d="M13.5 6H46C47.9891 6 49.8968 6.79018 51.3033 8.1967C52.7098 9.60322 53.5 11.5109 53.5 13.5V46C53.5 47.9891 52.7098 49.8968 51.3033 51.3033C49.8968 52.7098 47.9891 53.5 46 53.5H13.5C11.5109 53.5 9.60322 52.7098 8.1967 51.3033C6.79018 49.8968 6 47.9891 6 46V13.5C6 11.5109 6.79018 9.60322 8.1967 8.1967C9.60322 6.79018 11.5109 6 13.5 6ZM13.5 8.5C12.1739 8.5 10.9021 9.02678 9.96447 9.96447C9.02678 10.9021 8.5 12.1739 8.5 13.5V42.475L19.225 31.725L25.475 37.975L37.975 25.475L51 38.5V13.5C51 12.1739 50.4732 10.9021 49.5355 9.96447C48.5979 9.02678 47.3261 8.5 46 8.5H13.5ZM25.475 41.525L19.225 35.275L8.5 46C8.5 47.3261 9.02678 48.5979 9.96447 49.5355C10.9021 50.4732 12.1739 51 13.5 51H46C47.3261 51 48.5979 50.4732 49.5355 49.5355C50.4732 48.5979 51 47.3261 51 46V42.025L37.975 29.025L25.475 41.525ZM19.75 13.5C21.4076 13.5 22.9973 14.1585 24.1694 15.3306C25.3415 16.5027 26 18.0924 26 19.75C26 21.4076 25.3415 22.9973 24.1694 24.1694C22.9973 25.3415 21.4076 26 19.75 26C18.0924 26 16.5027 25.3415 15.3306 24.1694C14.1585 22.9973 13.5 21.4076 13.5 19.75C13.5 18.0924 14.1585 16.5027 15.3306 15.3306C16.5027 14.1585 18.0924 13.5 19.75 13.5ZM19.75 16C18.7554 16 17.8016 16.3951 17.0983 17.0983C16.3951 17.8016 16 18.7554 16 19.75C16 20.7446 16.3951 21.6984 17.0983 22.4017C17.8016 23.1049 18.7554 23.5 19.75 23.5C20.7446 23.5 21.6984 23.1049 22.4017 22.4017C23.1049 21.6984 23.5 20.7446 23.5 19.75C23.5 18.7554 23.1049 17.8016 22.4017 17.0983C21.6984 16.3951 20.7446 16 19.75 16Z" fill="#121212"/>
</g>
</svg>
