<svg width="24" height="25" viewBox="0 0 24 25" fill="none" xmlns="http://www.w3.org/2000/svg">
<g id="proicons:home">
<path id="Vector" d="M8.8505 22.5H5.13689C3.76884 22.5 2.6604 21.3916 2.6604 20.0235V12.7385C2.66123 12.2078 2.77547 11.6834 2.99544 11.2004C3.21542 10.7175 3.53606 10.2871 3.93589 9.93808L10.6294 4.10805C11.0801 3.71595 11.6574 3.5 12.2548 3.5C12.8522 3.5 13.4295 3.71595 13.8802 4.10805L20.5738 9.93921C20.9734 10.2881 21.294 10.7183 21.514 11.201C21.7339 11.6838 21.8483 12.208 21.8492 12.7385V20.0235C21.8492 20.6801 21.5885 21.3099 21.1243 21.7743C20.6601 22.2387 20.0305 22.4997 19.3739 22.5H15.9684V15.0717C15.9684 14.0467 15.1377 13.2149 14.1116 13.2149H10.7084C9.68239 13.2149 8.85162 14.0467 8.85162 15.0717L8.8505 22.5ZM8.8505 22.5H15.9696" stroke="#121212" stroke-width="1.5" stroke-linejoin="round"/>
</g>
</svg>
