<svg width="58" height="15" viewBox="0 0 58 15" fill="none" xmlns="http://www.w3.org/2000/svg">
<g id="Group 2">
<path id="Vector" d="M26.2757 14.0818C26.0603 14.0818 25.8447 14.0009 25.6805 13.8387L23.1442 11.3358C22.8163 11.0118 22.8163 10.4854 23.1454 10.1623C23.4741 9.83782 24.0067 9.83782 24.3354 10.1623L26.8717 12.6648C27.1996 12.9892 27.1996 13.5155 26.8707 13.8387C26.7062 14.0009 26.4911 14.0818 26.2757 14.0818Z" fill="#E51236"/>
<g id="Group 1">
<path id="Vector_2" d="M50.9991 14.4618C47.1402 14.4618 44 11.331 44 7.48187C44 6.18764 44.3574 4.92406 45.0342 3.82766C45.2757 3.43545 45.793 3.31144 46.1916 3.54949C46.5878 3.78811 46.7146 4.2989 46.4729 4.69038C45.9564 5.52713 45.6837 6.49169 45.6837 7.48187C45.6837 10.4147 48.0675 12.8015 50.9991 12.8015C53.9307 12.8015 56.3167 10.4147 56.3167 7.48187C56.3167 4.54906 53.9306 2.16025 50.9991 2.16025C50.1425 2.16099 49.3256 2.35809 48.5709 2.74725C48.1581 2.9605 47.65 2.80131 47.4354 2.39525C47.2198 1.98902 47.3796 1.48746 47.7913 1.27479C48.7744 0.768866 49.8841 0.500742 50.9984 0.5C54.8596 0.5 58.0001 3.63156 58.0001 7.48187C58.0001 11.3322 54.8596 14.4618 50.9991 14.4618Z" fill="#E51236"/>
<path id="Vector_3" d="M22.8618 0.901367H16.864C16.5143 0.901367 16.215 1.11082 16.0876 1.40952C16.0419 1.51219 16.0156 1.62491 16.0156 1.74381V13.2272C16.0156 13.6861 16.392 14.0575 16.8574 14.0575C17.3228 14.0575 17.6992 13.6861 17.6992 13.2272V2.56203H22.8618C24.2732 2.56203 25.4219 3.69418 25.4219 5.08705C25.4219 6.47991 24.2732 7.6124 22.8618 7.6124H19.9139C19.4485 7.6124 19.072 7.98377 19.072 8.44265C19.072 8.90152 19.4485 9.27289 19.9139 9.27289H22.8618C25.2013 9.27289 27.1055 7.39495 27.1055 5.08705C27.1055 2.77915 25.2013 0.901367 22.8618 0.901367Z" fill="#E51236"/>
<path id="Vector_4" d="M40.5663 7.4082H37.1564C36.6918 7.4082 36.3145 7.77949 36.3145 8.23853C36.3145 8.69758 36.6918 9.06853 37.1564 9.06853H39.7242V13.2632C39.7242 13.7218 40.1007 14.0936 40.5663 14.0936C41.0318 14.0936 41.4082 13.7218 41.4082 13.2632V8.23853C41.4082 7.77949 41.0307 7.4082 40.5663 7.4082" fill="#E51236"/>
<path id="Vector_5" d="M36.4012 14.5002C32.5405 14.5002 29.4004 11.3685 29.4004 7.51815C29.4004 3.66775 32.5404 0.538086 36.4012 0.538086C37.9211 0.538086 39.3674 1.01633 40.584 1.92189C40.9546 2.19784 41.0277 2.71901 40.7487 3.08453C40.4688 3.4503 39.9411 3.5238 39.5693 3.24694C38.6471 2.56113 37.552 2.19842 36.4012 2.19842C33.4696 2.19842 31.0837 4.58509 31.0837 7.51815C31.0837 10.4512 33.4696 12.84 36.4012 12.84C36.772 12.84 37.1461 12.801 37.511 12.7239C37.9682 12.6241 38.4136 12.9134 38.5107 13.362C38.6078 13.8104 38.3184 14.2512 37.8628 14.3473C37.3829 14.4489 36.8903 14.5002 36.4012 14.5002" fill="#E51236"/>
<path id="Vector_6" d="M6.83002 14.057C6.36512 14.057 5.98828 13.6855 5.98828 13.2267V8.26831C5.98828 7.80993 6.36512 7.43848 6.83002 7.43848C7.29492 7.43848 7.67209 7.80993 7.67209 8.26831V13.2267C7.67209 13.6855 7.295 14.057 6.83002 14.057Z" fill="#E51236"/>
<path id="Vector_7" d="M8.59008 6.11554C8.34885 6.11554 8.1093 6.01345 7.94303 5.81676C7.64515 5.46369 7.69428 4.94095 8.0514 4.64736L12.3664 1.10645C12.7235 0.812948 13.254 0.86041 13.5514 1.21365C13.8492 1.56599 13.8004 2.08889 13.4431 2.38198L9.12834 5.92372C8.97092 6.05242 8.78017 6.11554 8.59008 6.11554Z" fill="#E51236"/>
<path id="Vector_8" d="M5.15913 6.11525C4.96912 6.11525 4.77853 6.05213 4.6212 5.92342L0.303472 2.38169C-0.053811 2.08942 -0.102691 1.56561 0.194516 1.21336C0.491639 0.861021 1.02288 0.812653 1.38025 1.10616L5.69798 4.64707C6.05501 4.93983 6.10414 5.46339 5.80693 5.81647C5.64032 6.01315 5.40044 6.11525 5.15913 6.11525Z" fill="#E51236"/>
</g>
</g>
</svg>
